<?xml version="1.0" encoding="UTF-8" standalone="no"?>
<svg width="590px" height="58px" viewBox="0 0 590 58" version="1.1" xmlns="http://www.w3.org/2000/svg" xmlns:xlink="http://www.w3.org/1999/xlink">
    <defs>
        <linearGradient x1="50.3457651%" y1="100.675059%" x2="49.4847423%" y2="0.687113606%" id="linearGradient-1">
            <stop stop-color="#4A4A4A" offset="0%"></stop>
            <stop stop-color="#101010" offset="100%"></stop>
        </linearGradient>
    </defs>
    <g stroke="none" stroke-width="1" fill="none" fill-rule="evenodd">
        <g>
            <path d="M0.004,-3.55271368e-15 L590,-3.55271368e-15 L590,58.069 L0.004,58.069 L0.004,-3.55271368e-15 L0.004,-3.55271368e-15 Z" stroke="url(#linearGradient-1)" fill-opacity="0.5" fill="#181818"></path>
            <path d="M5.515,5.5 L247.703,5.5 L247.703,53.589 L5.515,53.589 L5.515,5.5 L5.515,5.5 Z" stroke="#000000" fill="#131313"></path>
            <path d="M248.487,5.501 L585,5.501 L585,53.534 L248.487,53.534 L248.487,5.501 L248.487,5.501 Z" stroke="#ECECEC" fill="#D1D1D1"></path>
            <path d="M210.173,41.384 L229.65,41.384 L229.146,43.063 L199.806,43.063 L206.816,18.886 C207.109,17.794 206.06,17.039 204.801,17.039 L202.954,17.039 L203.458,15.36 L215.756,15.36 L208.83,39.369 C208.536,40.461 209.124,41.384 210.173,41.384 L210.173,41.384 Z M190.322,39.411 C190.028,40.502 190.616,41.426 191.707,41.426 L193.932,41.426 L193.428,43.063 L185.621,43.063 C183.312,43.063 182.137,40.251 182.515,38.949 L184.739,31.142 L171.727,31.142 L169.335,39.411 C169.041,40.502 169.629,41.426 170.72,41.426 L172.945,41.426 L172.483,43.105 L160.352,43.105 L167.32,18.928 C167.614,17.836 166.564,17.081 165.305,17.081 L163.458,17.081 L163.962,15.402 C173.322,15.402 182.683,15.444 192.085,15.402 C195.023,15.402 196.366,18.466 195.695,20.732 L190.322,39.411 L190.322,39.411 Z M186.292,17.081 L175.757,17.081 L172.231,29.463 L185.243,29.463 L188.307,18.928 C188.643,17.836 187.552,17.081 186.292,17.081 L186.292,17.081 Z M150.583,39.411 C150.289,40.502 150.877,41.426 151.968,41.426 L154.193,41.426 L153.689,43.063 L145.882,43.063 C143.574,43.063 142.398,40.251 142.776,38.949 L145.63,29.043 L132.618,29.043 L129.596,39.411 C129.26,40.502 129.89,41.426 130.981,41.426 L133.206,41.426 L132.744,43.063 L120.614,43.063 L127.581,18.928 C127.875,17.836 126.826,17.081 125.566,17.081 L123.72,17.081 L124.223,15.402 L136.48,15.402 C133.374,26.315 136.774,14.478 133.08,27.365 L146.092,27.365 L148.568,18.928 C148.904,17.836 147.813,17.081 146.554,17.081 L144.623,17.081 L145.085,15.402 L152.304,15.402 C155.242,15.402 156.628,18.466 155.956,20.732 L150.583,39.411 L150.583,39.411 Z M110.952,16.997 L104.488,39.411 C104.194,40.502 104.782,41.426 105.831,41.426 L108.098,41.426 L107.594,43.105 L95.464,43.105 L102.431,18.928 C102.725,17.836 101.76,16.997 100.5,16.997 L92.148,16.997 L92.651,15.402 L120.48,15.402 L120.019,16.997 L110.952,16.997 L110.952,16.997 Z M90.333,21.488 L82.316,21.488 L83.114,18.928 C83.45,17.836 82.358,17.081 81.099,17.081 L70.564,17.081 L67.625,27.365 L80.637,27.365 L80.176,29.043 L67.164,29.043 L64.141,39.411 C63.806,40.502 64.435,41.426 65.527,41.426 L74.635,41.426 C75.726,41.426 76.818,40.502 77.154,39.411 C77.279,38.992 77.573,38.446 77.657,38.11 C77.783,38.026 85.59,38.11 85.59,38.11 C85.59,38.11 85.38,38.656 85.213,38.949 C84.835,40.292 81.897,43.063 79.546,43.063 C70.144,43.063 71.613,43.063 60.154,43.105 C56.67,43.105 56.25,39.663 56.88,37.396 C60.112,25.686 58.349,31.814 62.127,18.928 C62.462,17.836 61.371,17.081 60.112,17.081 L58.265,17.081 L58.769,15.402 L86.892,15.402 C89.83,15.402 91.173,18.466 90.501,20.775 C90.417,21.068 90.417,21.194 90.333,21.488 L90.333,21.488 Z M35.67,41.384 L55.147,41.384 L54.643,43.063 L25.303,43.063 L32.313,18.886 C32.606,17.794 31.557,17.039 30.298,17.039 L28.451,17.039 L28.955,15.36 L41.253,15.36 L34.327,39.369 C34.033,40.461 34.621,41.384 35.67,41.384 L35.67,41.384 Z" fill="#FFFFFF"></path>
            <path d="M571.734997,20.556 C571.650997,20.85 571.650997,20.976 571.566997,21.269 L563.549997,21.269 L564.347997,18.709 C564.682997,17.617 563.591997,16.862 562.332997,16.862 L551.796997,16.862 L548.858997,27.146 L561.870997,27.146 L561.408997,28.825 L548.396997,28.825 L545.374997,39.192 C545.038997,40.284 545.668997,41.207 546.759997,41.207 L555.868997,41.207 C556.959997,41.207 558.050997,40.284 558.386997,39.192 C558.512997,38.773 558.806997,38.227 558.890997,37.891 C559.016997,37.807 566.823997,37.891 566.823997,37.891 C566.823997,37.891 566.613997,38.437 566.445997,38.731 C566.068997,40.074 563.129997,42.844 560.779997,42.844 C551.377997,42.844 552.846997,42.844 541.387997,42.886 C537.903997,42.886 537.483997,39.444 538.113997,37.178 C541.345997,25.467 539.582997,31.595 543.359997,18.709 C543.695997,17.617 542.604997,16.862 541.345997,16.862 L539.498997,16.862 L540.001997,15.183 L568.124997,15.183 C571.062997,15.183 572.406997,18.247 571.734997,20.556 L571.734997,20.556 Z M531.839997,25.677 C531.588997,26.6 530.160997,28.279 528.481997,29.244 C529.615997,30.336 530.035997,32.099 529.615997,33.526 L527.978997,39.192 C527.684997,40.284 528.272997,41.207 529.363997,41.207 L531.588997,41.207 L531.084997,42.844 L523.277997,42.844 C520.968997,42.844 519.793997,40.032 520.170997,38.689 C521.598997,33.694 522.101997,31.973 522.185997,31.595 C522.395997,30.588 521.765997,29.916 520.254997,29.916 L509.677997,29.916 C509.215997,31.553 508.376997,34.407 506.991997,39.192 C506.697997,40.284 507.284997,41.207 508.376997,41.207 L510.600997,41.207 L510.097997,42.844 L498.050997,42.844 L504.976997,18.709 C505.270997,17.617 504.220997,16.862 502.961997,16.862 L501.114997,16.862 L501.618997,15.183 L529.741997,15.183 C532.679997,15.183 534.022997,18.247 533.350997,20.514 C532.595997,23.158 532.637997,23.032 531.839997,25.677 L531.839997,25.677 Z M523.948997,16.862 L513.455997,16.862 C511.776997,22.738 510.978997,25.425 510.642997,26.516 C510.516997,27.397 511.020997,28.195 511.944997,28.195 L521.472997,28.237 C522.479997,28.237 523.445997,27.23 523.738997,26.222 C524.704997,22.822 525.921997,18.667 525.963997,18.709 C526.257997,17.617 525.207997,16.862 523.948997,16.862 L523.948997,16.862 Z M489.701997,38.731 C489.323997,40.074 486.553997,42.844 484.244997,42.844 C477.360997,42.844 470.477997,42.886 463.593997,42.844 C461.284997,42.844 460.109997,40.032 460.487997,38.689 C462.208997,32.602 464.012997,26.558 465.733997,20.514 C466.405997,18.247 469.469997,15.183 472.407997,15.183 L491.338997,15.183 C494.276997,15.183 495.619997,18.247 494.948997,20.514 C493.227997,26.6 491.506997,32.644 489.701997,38.731 L489.701997,38.731 Z M485.545997,16.862 C480.005997,16.904 482.817997,16.862 477.234997,16.82 C475.975997,16.82 474.506997,17.575 474.170997,18.667 C472.197997,25.509 470.267997,32.35 468.294997,39.192 C468.000997,40.284 468.588997,41.207 469.679997,41.207 L479.123997,41.207 C480.215997,41.207 481.348997,40.284 481.642997,39.234 C483.573997,32.392 485.587997,25.551 487.560997,18.709 C487.854997,17.617 486.763997,16.862 485.545997,16.862 L485.545997,16.862 Z M450.664997,22.151 C450.958997,21.101 451.420997,19.758 451.755997,18.709 C452.091997,17.617 451.000997,16.862 449.783997,16.862 C444.242997,16.862 447.012997,16.862 441.388997,16.82 C440.128997,16.82 438.659997,17.575 438.324997,18.667 C436.351997,25.509 434.420997,32.35 432.489997,39.192 C432.195997,40.284 432.783997,41.207 433.874997,41.207 L443.319997,41.207 C444.410997,41.207 445.585997,40.284 445.879997,39.276 C446.131997,38.395 446.383997,37.513 446.635997,36.632 L454.484997,36.632 C454.484997,36.632 454.022997,38.185 453.854997,38.731 C453.476997,40.074 450.706997,42.844 448.439997,42.844 C441.556997,42.844 434.672997,42.886 427.788997,42.844 C425.479997,42.844 424.262997,40.032 424.640997,38.689 C426.319997,32.602 428.166997,26.558 429.929997,20.514 C430.600997,18.247 433.664997,15.183 436.603997,15.183 L455.533997,15.183 C459.689997,15.183 459.647997,19.548 458.639997,22.151 L450.664997,22.151 L450.664997,22.151 Z M421.708997,20.514 C419.987997,26.6 418.266997,32.644 416.503997,38.731 C416.125997,40.074 413.355997,42.886 411.005997,42.886 L386.408997,42.886 L393.375997,18.709 C393.669997,17.617 392.620997,16.862 391.361997,16.862 L389.514997,16.862 L390.017997,15.183 L418.098997,15.183 C421.037997,15.183 422.380997,18.247 421.750997,20.514 L421.708997,20.514 L421.708997,20.514 Z M412.306997,16.862 L401.728997,16.862 C395.306997,39.234 401.728997,16.862 395.348997,39.192 C395.054997,40.284 395.642997,41.207 396.733997,41.207 L405.884997,41.207 C406.975997,41.207 408.066997,40.284 408.360997,39.234 C410.333997,32.392 412.348997,25.551 414.279997,18.667 L414.321997,18.709 C414.614997,17.617 413.565997,16.862 412.306997,16.862 L412.306997,16.862 Z M380.827997,25.677 C380.575997,26.6 379.148997,28.279 377.469997,29.244 C378.602997,30.336 379.022997,32.099 378.602997,33.526 L376.965997,39.192 C376.672997,40.284 377.259997,41.207 378.351997,41.207 L380.575997,41.207 L380.072997,42.844 L372.264997,42.844 C369.956997,42.844 368.780997,40.032 369.158997,38.689 C370.585997,33.694 371.089997,31.973 371.173997,31.595 C371.383997,30.588 370.753997,29.916 369.242997,29.916 L358.665997,29.916 C358.203997,31.553 357.363997,34.407 355.978997,39.192 C355.684997,40.284 356.272997,41.207 357.363997,41.207 L359.588997,41.207 L359.084997,42.844 L347.038997,42.844 L353.964997,18.709 C354.257997,17.617 353.208997,16.862 351.949997,16.862 L350.102997,16.862 L350.606997,15.183 L378.728997,15.183 C381.667997,15.183 383.010997,18.247 382.338997,20.514 C381.583997,23.158 381.625997,23.032 380.827997,25.677 L380.827997,25.677 Z M372.936997,16.862 L362.442997,16.862 C360.763997,22.738 359.966997,25.425 359.630997,26.516 C359.504997,27.397 360.008997,28.195 360.931997,28.195 L370.459997,28.237 C371.467997,28.237 372.432997,27.23 372.726997,26.222 C373.692997,22.822 374.909997,18.667 374.951997,18.709 C375.244997,17.617 374.195997,16.862 372.936997,16.862 L372.936997,16.862 Z M337.290997,39.192 C336.996997,40.284 337.583997,41.207 338.675997,41.207 L340.899997,41.207 L340.396997,42.844 L332.588997,42.844 C330.280997,42.844 329.105997,40.032 329.482997,38.731 L331.707997,30.923 L318.695997,30.923 L316.302997,39.192 C316.009997,40.284 316.596997,41.207 317.688997,41.207 L319.912997,41.207 L319.450997,42.886 L307.320997,42.886 L314.288997,18.709 C314.581997,17.617 313.532997,16.862 312.273997,16.862 L310.426997,16.862 L310.930997,15.183 C320.290997,15.183 329.650997,15.225 339.053997,15.183 C341.991997,15.183 343.334997,18.247 342.662997,20.514 L337.290997,39.192 L337.290997,39.192 Z M333.260997,16.862 L322.725997,16.862 L319.199997,29.244 L332.211997,29.244 L335.275997,18.709 C335.611997,17.617 334.519997,16.862 333.260997,16.862 L333.260997,16.862 Z M297.551997,39.192 C297.257997,40.284 297.845997,41.207 298.936997,41.207 L301.161997,41.207 L300.657997,42.844 L292.850997,42.844 C290.541997,42.844 289.366997,40.032 289.744997,38.731 L292.598997,28.825 L279.586997,28.825 L276.564997,39.192 C276.228997,40.284 276.857997,41.207 277.949997,41.207 L280.173997,41.207 L279.712997,42.844 L267.581997,42.844 L274.549997,18.709 C274.843997,17.617 273.793997,16.862 272.534997,16.862 L270.687997,16.862 L271.191997,15.183 L283.447997,15.183 C280.341997,26.096 283.741997,14.26 280.047997,27.146 L293.060997,27.146 L295.536997,18.709 C295.872997,17.617 294.781997,16.862 293.521997,16.862 L291.590997,16.862 L292.052997,15.183 L299.272997,15.183 C302.210997,15.183 303.595997,18.247 302.924997,20.514 L297.551997,39.192 L297.551997,39.192 Z" fill="#141414"></path>
        </g>
    </g>
</svg>